<svg width="25" height="25" viewBox="0 0 25 25" fill="none" xmlns="http://www.w3.org/2000/svg">
<path d="M24.0106 19.7471C23.9971 19.7283 23.9883 19.7084 23.9872 19.6837C23.9167 18.4773 23.3077 17.5702 22.39 16.842C21.734 16.3216 20.9635 16.0892 20.1438 15.9924C19.8628 15.9589 19.8616 15.956 19.8616 15.6597C19.861 14.6616 19.8698 13.6635 19.8587 12.6654C19.8499 11.8709 19.9038 11.0753 19.817 10.2814C19.6668 8.90367 19.2021 7.64388 18.3941 6.51787C17.7217 5.58022 16.889 4.81391 15.8775 4.2512C15.7167 4.16142 15.6404 4.04524 15.6445 3.85748C15.6527 3.47549 15.6474 3.09351 15.6469 2.71152C15.6463 2.22803 15.6545 1.74394 15.6433 1.26104C15.6339 0.852647 15.4192 0.585668 15.0689 0.524058C15.0683 0.524058 15.0683 0.524058 15.0677 0.524058H14.738C14.728 0.523471 14.718 0.522885 14.7086 0.522885H14.6934V0.523472C14.5085 0.526406 14.3718 0.633196 14.2451 0.754656C14.0309 0.958851 13.8167 1.16539 13.6172 1.38426C13.4881 1.52567 13.399 1.50983 13.2787 1.37722C13.1056 1.1871 12.9143 1.01342 12.7353 0.828589C12.5757 0.663121 12.3979 0.532859 12.1632 0.5H11.8822C11.6486 0.532859 11.4714 0.661361 11.3118 0.826242C11.1229 1.02105 10.924 1.20705 10.738 1.40479C10.6341 1.51569 10.5567 1.51687 10.4516 1.40597C10.2433 1.18652 10.028 0.973522 9.8097 0.763459C9.67944 0.637891 9.53921 0.526992 9.35085 0.522885C9.34616 0.522298 9.34146 0.522297 9.33677 0.522297C9.32504 0.522297 9.31271 0.522884 9.30039 0.524058C9.19243 0.524058 9.08505 0.524058 8.9765 0.524645H8.96359C8.75177 0.528166 8.62268 0.654906 8.51999 0.822721C8.41848 0.988776 8.3956 1.17185 8.3956 1.36255C8.39677 2.16642 8.38797 2.97029 8.40088 3.77416C8.40499 4.02647 8.31345 4.17316 8.09341 4.29168C7.28661 4.72824 6.60479 5.32967 6.02448 6.02851C4.804 7.49777 4.1879 9.20174 4.18262 11.1169C4.17851 12.5457 4.18496 13.9739 4.18027 15.4021C4.17792 16.0569 4.26887 15.9384 3.64044 16.034C2.38183 16.2259 1.40545 16.859 0.683143 17.9017C0.0200974 18.8587 -0.0866954 19.9296 0.0547153 21.0386C0.29881 22.9573 2.0949 24.4993 4.05881 24.4993C9.35027 24.5005 14.6417 24.4999 19.9338 24.4993C20.1515 24.4993 20.3721 24.4958 20.5857 24.4559C21.7123 24.2476 22.6112 23.6732 23.2795 22.7431C23.7108 22.1423 23.9725 21.4763 24.0106 20.7305V20.5903C23.9725 20.4964 23.9725 20.4031 24.0106 20.3092V19.7471ZM11.9027 2.31487C11.996 2.21395 12.0541 2.19693 12.1579 2.30724C12.3662 2.52845 12.5916 2.73323 12.8098 2.94447C13.3227 3.44205 13.6143 3.44205 14.1389 2.94447C14.2105 2.97498 14.1747 3.03835 14.1747 3.08412C14.1782 3.56761 14.1723 4.05052 14.1799 4.53402C14.1817 4.66721 14.1617 4.72061 14.0068 4.71944C12.6819 4.71239 11.357 4.71474 10.0321 4.7165C9.92999 4.7165 9.86193 4.71885 9.86427 4.5745C9.87425 4.02236 9.86838 3.46962 9.86838 2.8987C9.90359 2.90868 9.9118 2.90868 9.91591 2.9122C10.5426 3.4708 10.7585 3.46317 11.3594 2.86232C11.5413 2.68042 11.7284 2.50381 11.9027 2.31487ZM5.67476 10.762C5.7616 8.69243 6.70688 7.04127 8.39794 5.82842C8.49711 5.75742 8.54757 5.73865 8.63031 5.85718C8.75763 6.04025 8.95596 6.11887 9.17893 6.11887C11.0754 6.12005 12.9712 6.12063 14.8676 6.11887C15.0994 6.11887 15.3001 6.03144 15.4303 5.83781C15.5031 5.72985 15.5495 5.76036 15.6287 5.81669C17.0956 6.85233 17.9869 8.25353 18.2979 10.0209C18.4651 10.9732 18.3671 11.9361 18.3906 12.8937C18.3953 13.0732 18.3912 13.2528 18.3912 13.4323C18.3912 14.2984 18.3865 15.165 18.3953 16.0311C18.397 16.2159 18.37 16.3486 18.1635 16.3838C18.1265 16.3902 18.0843 16.4043 18.0567 16.4284C17.6219 16.8121 17.2787 16.4688 16.9137 16.2887C16.8374 16.2512 16.8327 16.1766 16.811 16.1144C16.6737 15.709 16.544 15.3012 16.405 14.8969C16.3721 14.8013 16.3692 14.722 16.4161 14.6299C16.8656 13.7468 17.0123 12.8016 16.9876 11.8211C16.9812 11.5869 16.99 11.3528 16.9859 11.1187C16.9771 10.6775 16.6907 10.3899 16.2489 10.3841C15.8428 10.3782 15.4368 10.3723 15.0313 10.3847C13.7762 10.4228 12.7752 9.48339 12.7224 8.24238C12.7001 7.7096 12.226 7.38981 11.7648 7.57934C11.4779 7.69669 11.3371 7.92435 11.3189 8.23416C11.2696 9.10669 10.8665 9.75506 10.0849 10.1593C9.77332 10.3207 9.43828 10.3788 9.09209 10.3817C8.67021 10.3852 8.24891 10.38 7.82761 10.3835C7.34235 10.387 7.05542 10.6698 7.06071 11.1568C7.07068 11.9901 6.99616 12.8274 7.19331 13.6512C7.28074 14.0156 7.40044 14.3682 7.57471 14.7003C7.63339 14.8118 7.64219 14.9127 7.59584 15.0324C7.51721 15.2355 7.42391 15.4402 7.3934 15.6526C7.31829 16.1743 6.98149 16.4366 6.5291 16.6038C6.48802 16.6191 6.45164 16.6678 6.40118 16.6402C6.17586 16.5175 5.94585 16.4043 5.70645 16.311C5.62958 16.2811 5.65481 16.2048 5.65481 16.1461C5.65599 14.3512 5.60024 12.5539 5.67476 10.762ZM8.50356 11.8193C8.60566 11.7289 8.84389 11.7864 9.02168 11.7888C10.1735 11.8011 11.1293 11.3816 11.8769 10.4997C11.9625 10.3982 12.0154 10.3107 12.148 10.4721C12.9196 11.408 13.9259 11.8217 15.1299 11.79C15.587 11.7776 15.5876 11.7876 15.5811 12.25C15.5594 13.9328 14.4898 15.4238 12.9565 15.9091C11.0237 16.5211 8.79108 15.1087 8.5106 13.1002C8.47598 12.852 8.4619 12.6044 8.46484 12.3139C8.48127 12.1708 8.38269 11.9267 8.50356 11.8193ZM8.67901 16.1872C10.8025 17.9833 13.5808 17.7679 15.3376 16.1133C15.5277 16.7763 15.6709 17.4693 16.5088 17.6213C16.2278 18.0044 16.0048 18.3606 15.8651 18.7596C15.82 18.8881 15.7261 18.8628 15.6375 18.8623C15.0642 18.8617 14.5038 18.935 13.9652 19.1433C13.3702 19.3733 12.8773 19.7412 12.4754 20.2347C12.4208 20.3016 12.3674 20.3685 12.3128 20.4348C12.1051 20.6871 11.9262 20.6941 11.7308 20.4313C10.9122 19.3293 9.79562 18.8558 8.45076 18.8681C8.27179 18.8699 8.19258 18.8106 8.13331 18.6481C8.00247 18.2896 7.79827 17.9686 7.53364 17.6201C8.33399 17.4687 8.51999 16.8391 8.67901 16.1872ZM4.192 23.067C4.10634 23.0694 4.01245 23.1011 3.93911 23.0019C3.25553 22.0777 3.2878 20.9688 4.02888 20.0763C4.32696 19.7172 4.31816 19.3123 4.006 19.0377C3.69443 18.7637 3.28662 18.8141 2.97329 19.1515C2.40295 19.7653 1.94176 20.6607 2.06204 22.0378C1.57268 21.4159 1.39489 20.7605 1.45005 20.0487C1.56799 18.5284 2.85242 17.383 4.37684 17.4628C5.45766 17.5192 6.25625 18.0578 6.76556 19.0189C6.82365 19.1281 6.82013 19.1774 6.69398 19.2401C5.17249 19.9953 4.37214 21.2334 4.25068 22.9209C4.24657 22.9726 4.29117 23.0641 4.192 23.067ZM18.1553 23.0782C16.1122 23.0711 14.0685 23.0735 12.0253 23.0735C9.974 23.0735 7.92266 23.0705 5.87192 23.0788C5.6777 23.0793 5.64425 23.0201 5.65892 22.8458C5.79564 21.217 7.25316 20.0698 8.87146 20.2893C9.61959 20.3914 10.1952 20.72 10.6517 21.3214C11.3758 22.2761 12.6896 22.2925 13.3843 21.322C14.1348 20.274 15.4456 20.1091 16.3944 20.3779C17.4881 20.6877 18.282 21.6934 18.3882 22.8405C18.4064 23.0424 18.3472 23.0794 18.1553 23.0782ZM22.0056 21.968C22.0227 21.4769 22.0033 20.9928 21.8601 20.5199C21.6923 19.9642 21.4019 19.4819 20.9964 19.0717C20.7212 18.793 20.3087 18.7901 20.0271 19.0477C19.7454 19.3047 19.7043 19.7131 19.9701 20.0117C20.3991 20.4941 20.6426 21.0327 20.5927 21.6887C20.5557 22.1792 20.304 22.5865 20.0934 23.0095C20.0435 23.1099 19.9402 23.07 19.8622 23.0682C19.7478 23.0659 19.7976 22.9638 19.7935 22.9074C19.6703 21.2299 18.87 20.0018 17.3631 19.2448C17.2546 19.1903 17.2106 19.1609 17.2745 19.0312C17.7721 18.0197 18.87 17.3783 19.9813 17.4605C21.1812 17.5491 22.1418 18.2913 22.4768 19.4226C22.7497 20.3433 22.5901 21.197 22.0056 21.968Z" fill="#FFC0CF"/>
</svg>
