<svg width="20" height="20" viewBox="0 0 20 20" fill="none" xmlns="http://www.w3.org/2000/svg">
<path d="M20.0088 16.0393C19.9976 16.0236 19.9903 16.007 19.9893 15.9864C19.9306 14.9811 19.4231 14.2252 18.6583 13.6184C18.1116 13.1846 17.4696 12.991 16.7865 12.9103C16.5523 12.8825 16.5513 12.88 16.5513 12.6331C16.5508 11.8013 16.5582 10.9696 16.5489 10.1379C16.5416 9.47579 16.5865 8.81274 16.5142 8.15116C16.389 7.00305 16.0017 5.95323 15.3284 5.01489C14.768 4.23352 14.0742 3.59492 13.2312 3.126C13.0972 3.05119 13.0337 2.95437 13.0371 2.7979C13.0439 2.47958 13.0395 2.16126 13.039 1.84293C13.0386 1.44002 13.0454 1.03662 13.0361 0.634197C13.0283 0.293872 12.8493 0.0713901 12.5574 0.020048C12.5569 0.020048 12.5569 0.020048 12.5564 0.020048H12.2816C12.2733 0.0195591 12.265 0.0190706 12.2572 0.0190706H12.2445V0.0195601C12.0904 0.0220049 11.9765 0.110996 11.8709 0.212214C11.6924 0.382376 11.5139 0.554494 11.3477 0.736881C11.2401 0.854723 11.1658 0.841521 11.0656 0.731013C10.9213 0.572587 10.7619 0.427851 10.6128 0.273825C10.4798 0.135934 10.3316 0.0273824 10.136 0H9.9018C9.70719 0.0273824 9.55952 0.134467 9.42652 0.271868C9.26907 0.434207 9.10331 0.589212 8.94831 0.753995C8.86176 0.846411 8.79721 0.847388 8.70969 0.754973C8.5361 0.572097 8.35665 0.394601 8.17475 0.219549C8.0662 0.114909 7.94934 0.0224934 7.79238 0.0190706C7.78847 0.0185816 7.78455 0.0185812 7.78064 0.0185812C7.77086 0.0185812 7.76059 0.0190701 7.75033 0.020048C7.66035 0.020048 7.57087 0.0200485 7.48041 0.0205375H7.46966C7.29314 0.0234713 7.18556 0.129089 7.09999 0.268934C7.0154 0.407314 6.99633 0.559873 6.99633 0.718789C6.99731 1.38868 6.98997 2.05857 7.00073 2.72846C7.00416 2.93872 6.92787 3.06096 6.74451 3.15974C6.07217 3.52353 5.50399 4.02473 5.0204 4.60709C4.00333 5.83148 3.48991 7.25145 3.48551 8.84746C3.48209 10.0381 3.48747 11.2283 3.48356 12.4184C3.4816 12.9641 3.55739 12.8653 3.0337 12.945C1.98486 13.1049 1.17121 13.6325 0.569286 14.5014C0.0167478 15.299 -0.0722461 16.1913 0.0455961 17.1155C0.249008 18.7144 1.74575 19.9994 3.38234 19.9994C7.79189 20.0004 12.2014 19.9999 16.6115 19.9994C16.7929 19.9994 16.9767 19.9965 17.1547 19.9633C18.0935 19.7897 18.8427 19.311 19.3996 18.5359C19.759 18.0352 19.9771 17.4803 20.0088 16.8588V16.7419C19.9771 16.6637 19.9771 16.5859 20.0088 16.5077V16.0393ZM9.91892 1.51239C9.99666 1.42829 10.0451 1.41411 10.1316 1.50603C10.3052 1.69038 10.493 1.86103 10.6749 2.03706C11.1022 2.4517 11.3452 2.4517 11.7824 2.03706C11.842 2.06248 11.8122 2.11529 11.8122 2.15343C11.8151 2.55634 11.8103 2.95877 11.8166 3.36168C11.8181 3.47268 11.8015 3.51717 11.6724 3.5162C10.5683 3.51033 9.46417 3.51229 8.36007 3.51375C8.27499 3.51375 8.21827 3.51571 8.22023 3.39542C8.22854 2.9353 8.22365 2.47469 8.22365 1.99892C8.25299 2.00723 8.25984 2.00723 8.26326 2.01016C8.78548 2.47567 8.96542 2.46931 9.46613 1.9686C9.61771 1.81702 9.77369 1.66984 9.91892 1.51239ZM4.72897 8.55163C4.80134 6.82702 5.58907 5.45106 6.99829 4.44035C7.08092 4.38119 7.12298 4.36554 7.19192 4.46431C7.29803 4.61687 7.4633 4.68239 7.64911 4.68239C9.22946 4.68337 10.8093 4.68386 12.3897 4.68239C12.5828 4.68239 12.7501 4.60954 12.8586 4.44818C12.9192 4.35821 12.9579 4.38363 13.0239 4.43057C14.2463 5.29361 14.9891 6.46127 15.2482 7.93406C15.3876 8.72766 15.3059 9.53006 15.3255 10.3281C15.3294 10.4777 15.326 10.6273 15.326 10.7769C15.326 11.4987 15.3221 12.2209 15.3294 12.9426C15.3309 13.0966 15.3084 13.2071 15.1362 13.2365C15.1054 13.2418 15.0702 13.2536 15.0473 13.2736C14.6849 13.5934 14.3989 13.3074 14.0947 13.1573C14.0312 13.126 14.0273 13.0639 14.0092 13.012C13.8947 12.6741 13.7867 12.3343 13.6708 11.9974C13.6434 11.9177 13.641 11.8517 13.6801 11.7749C14.0546 11.039 14.1769 10.2513 14.1563 9.43422C14.151 9.23912 14.1583 9.04402 14.1549 8.84892C14.1475 8.48122 13.9089 8.24162 13.5407 8.23673C13.2024 8.23184 12.864 8.22695 12.5261 8.23722C11.4802 8.269 10.646 7.48616 10.602 6.45198C10.5834 6.008 10.1883 5.74151 9.80401 5.89945C9.5649 5.99724 9.44755 6.18696 9.43239 6.44514C9.39131 7.17224 9.05539 7.71255 8.40408 8.04945C8.14444 8.18392 7.86523 8.23233 7.57674 8.23477C7.22517 8.23771 6.87409 8.23331 6.52301 8.23624C6.11863 8.23917 5.87952 8.47486 5.88392 8.88071C5.89223 9.57505 5.83013 10.2728 5.99443 10.9593C6.06728 11.263 6.16703 11.5568 6.31226 11.8336C6.36116 11.9265 6.36849 12.0106 6.32986 12.1104C6.26434 12.2795 6.18659 12.4502 6.16117 12.6272C6.09858 13.0619 5.81791 13.2805 5.44091 13.4198C5.40668 13.4325 5.37637 13.4731 5.33432 13.4501C5.14655 13.348 4.95487 13.2536 4.75537 13.1758C4.69132 13.1509 4.71234 13.0873 4.71234 13.0384C4.71332 11.5427 4.66687 10.0449 4.72897 8.55163ZM7.0863 9.43276C7.17138 9.35745 7.36991 9.40537 7.51806 9.40733C8.47792 9.4176 9.27445 9.06798 9.8974 8.33306C9.96879 8.24847 10.0128 8.17561 10.1233 8.31008C10.7663 9.08999 11.6049 9.43471 12.6083 9.40831C12.9892 9.39804 12.9897 9.40635 12.9843 9.79166C12.9662 11.194 12.0748 12.4365 10.7971 12.8409C9.18644 13.3509 7.3259 12.1739 7.09217 10.5002C7.06332 10.2933 7.05159 10.087 7.05403 9.84496C7.06772 9.72565 6.98557 9.52224 7.0863 9.43276ZM7.2325 13.0727C9.00209 14.5694 11.3174 14.39 12.7814 13.0111C12.9398 13.5636 13.0591 14.1411 13.7573 14.2677C13.5231 14.587 13.3373 14.8838 13.2209 15.2163C13.1833 15.3234 13.1051 15.3024 13.0312 15.3019C12.5535 15.3014 12.0865 15.3625 11.6377 15.5361C11.1418 15.7278 10.7311 16.0344 10.3962 16.4456C10.3507 16.5013 10.3062 16.5571 10.2607 16.6123C10.0876 16.8226 9.93847 16.8285 9.77565 16.6094C9.09353 15.6911 8.16302 15.2965 7.0423 15.3068C6.89316 15.3082 6.82715 15.2589 6.77776 15.1234C6.66872 14.8246 6.49856 14.5572 6.27803 14.2667C6.94499 14.1406 7.09999 13.6159 7.2325 13.0727ZM3.49334 18.8059C3.42195 18.8078 3.34371 18.8342 3.28259 18.7516C2.71294 17.9814 2.73983 17.0573 3.3574 16.3136C3.6058 16.0143 3.59847 15.6769 3.33833 15.4481C3.07869 15.2197 2.73885 15.2618 2.47774 15.5429C2.00246 16.0544 1.61813 16.8006 1.71837 17.9482C1.31057 17.4299 1.16241 16.8837 1.20837 16.2906C1.30665 15.0237 2.37701 14.0692 3.64736 14.1357C4.54805 14.1826 5.21354 14.6315 5.63797 15.4324C5.68638 15.5234 5.68344 15.5645 5.57831 15.6168C4.31041 16.2461 3.64345 17.2778 3.54223 18.6841C3.53881 18.7271 3.57597 18.8034 3.49334 18.8059ZM15.1294 18.8151C13.4268 18.8093 11.7237 18.8112 10.0211 18.8112C8.31167 18.8112 6.60222 18.8088 4.89326 18.8156C4.73141 18.8161 4.70354 18.7667 4.71577 18.6215C4.8297 17.2641 6.0443 16.3082 7.39289 16.4911C8.01633 16.5761 8.49601 16.85 8.87643 17.3512C9.47982 18.1467 10.5746 18.1604 11.1536 17.3517C11.779 16.4783 12.8713 16.341 13.662 16.5649C14.5734 16.8231 15.235 17.6612 15.3235 18.6171C15.3387 18.7853 15.2893 18.8161 15.1294 18.8151ZM18.338 17.89C18.3522 17.4807 18.3361 17.0773 18.2168 16.6832C18.0769 16.2202 17.8349 15.8182 17.497 15.4764C17.2677 15.2442 16.9239 15.2417 16.6892 15.4564C16.4545 15.6706 16.4203 16.0109 16.6418 16.2598C16.9992 16.6617 17.2022 17.1106 17.1606 17.6573C17.1298 18.066 16.92 18.4054 16.7445 18.7579C16.7029 18.8416 16.6169 18.8083 16.5518 18.8068C16.4565 18.8049 16.498 18.7198 16.4946 18.6729C16.3919 17.2749 15.725 16.2515 14.4693 15.6207C14.3788 15.5752 14.3422 15.5508 14.3955 15.4427C14.8101 14.5997 15.725 14.0653 16.6511 14.1337C17.651 14.2076 18.4515 14.8261 18.7307 15.7689C18.958 16.536 18.825 17.2475 18.338 17.89Z" fill="#444444"/>
</svg>
