<svg width="19" height="54" viewBox="0 0 19 54" fill="none" xmlns="http://www.w3.org/2000/svg">
<mask id="path-1-inside-1_304_213" fill="white">
<path d="M3.616 34.72C3.92533 35.8613 4.47467 36.6667 5.264 37.136C6.064 37.5947 7.01867 37.824 8.128 37.824C9.152 37.824 9.97333 37.6053 10.592 37.168C11.2213 36.72 11.536 36.1547 11.536 35.472C11.536 34.9067 11.328 34.4533 10.912 34.112C10.496 33.7707 9.87733 33.4453 9.056 33.136C8.23467 32.816 7.216 32.4053 6 31.904C4.89067 31.4773 3.92533 31.056 3.104 30.64C2.28267 30.224 1.64267 29.7067 1.184 29.088C0.725333 28.4587 0.496 27.6267 0.496 26.592C0.496 25.2693 0.821333 24.16 1.472 23.264C2.13333 22.368 3.008 21.664 4.096 21.152C5.19467 20.64 6.40533 20.304 7.728 20.144C7.71733 19.824 7.67467 19.5307 7.6 19.264C7.536 18.9973 7.504 18.816 7.504 18.72C7.504 18.4107 7.68 18.2187 8.032 18.144C8.32 18.0907 8.67733 18.032 9.104 17.968C9.54133 17.8933 9.84533 17.856 10.016 17.856C10.1227 17.856 10.2293 17.8987 10.336 17.984C10.4427 18.0693 10.496 18.24 10.496 18.496C10.496 18.6347 10.464 18.8533 10.4 19.152C10.3467 19.44 10.304 19.728 10.272 20.016C11.1787 20.0587 11.9733 20.1973 12.656 20.432C13.3387 20.6667 13.8987 20.9173 14.336 21.184C14.7733 21.44 15.0773 21.6213 15.248 21.728C15.6533 22.0053 15.936 22.2773 16.096 22.544C16.256 22.8 16.336 23.0987 16.336 23.44C16.336 24.112 16.128 24.6507 15.712 25.056C15.296 25.4613 14.816 25.664 14.272 25.664C13.504 25.664 12.896 25.1467 12.448 24.112C12.256 23.6533 11.888 23.232 11.344 22.848C10.8107 22.464 10 22.272 8.912 22.272C8.016 22.272 7.216 22.48 6.512 22.896C5.81867 23.312 5.472 23.8613 5.472 24.544C5.472 25.2267 5.92533 25.792 6.832 26.24C7.73867 26.6773 9.152 27.2373 11.072 27.92C12.3413 28.368 13.4453 28.8107 14.384 29.248C15.3333 29.6853 16.0693 30.2293 16.592 30.88C17.1147 31.52 17.376 32.384 17.376 33.472C17.376 34.8587 17.0347 35.9947 16.352 36.88C15.68 37.7653 14.816 38.4533 13.76 38.944C12.7147 39.424 11.6267 39.7493 10.496 39.92C10.5067 40.2293 10.544 40.5013 10.608 40.736C10.6827 40.9707 10.72 41.1307 10.72 41.216C10.72 41.536 10.544 41.728 10.192 41.792C10.0107 41.8347 9.76533 41.8827 9.456 41.936C9.14667 41.9893 8.848 42.0373 8.56 42.08C8.272 42.1227 8.07467 42.144 7.968 42.144C7.85067 42.144 7.73867 42.1013 7.632 42.016C7.536 41.9307 7.488 41.76 7.488 41.504C7.488 41.3973 7.504 41.216 7.536 40.96C7.57867 40.704 7.616 40.4053 7.648 40.064C5.824 40 4.33067 39.68 3.168 39.104C2.016 38.5173 1.25867 37.904 0.896 37.264C0.757333 37.0507 0.645333 36.752 0.56 36.368C0.474667 35.984 0.432 35.6533 0.432 35.376C0.432 33.9787 0.976 33.28 2.064 33.28C2.512 33.28 2.848 33.4347 3.072 33.744C3.296 34.0427 3.47733 34.368 3.616 34.72Z"/>
</mask>
<path d="M3.616 34.72L5.54636 34.1968L5.5174 34.09L5.47682 33.9869L3.616 34.72ZM5.264 37.136L4.24185 38.8551L4.25548 38.8632L4.26923 38.8711L5.264 37.136ZM10.592 37.168L11.7465 38.8012L11.7519 38.7973L10.592 37.168ZM10.912 34.112L12.1806 32.5659H12.1806L10.912 34.112ZM9.056 33.136L8.32994 34.9996L8.34049 35.0037L8.35109 35.0077L9.056 33.136ZM6 31.904L6.76232 30.055L6.74024 30.0459L6.71796 30.0373L6 31.904ZM3.104 30.64L4.00768 28.8558L4.00768 28.8558L3.104 30.64ZM1.184 29.088L-0.432287 30.266L-0.427482 30.2726L-0.422624 30.2791L1.184 29.088ZM1.472 23.264L-0.137148 22.0763L-0.14175 22.0825L-0.146304 22.0888L1.472 23.264ZM4.096 21.152L3.25119 19.3392L3.2444 19.3424L4.096 21.152ZM7.728 20.144L7.96818 22.1295L9.78796 21.9094L9.72689 20.0774L7.728 20.144ZM7.6 19.264L5.65523 19.7307L5.66397 19.7672L5.67407 19.8033L7.6 19.264ZM8.032 18.144L7.66782 16.1774L7.64234 16.1822L7.61699 16.1875L8.032 18.144ZM9.104 17.968L9.40068 19.9459L9.42067 19.9429L9.44059 19.9395L9.104 17.968ZM10.4 19.152L8.4444 18.7329L8.43853 18.7603L8.43344 18.7878L10.4 19.152ZM10.272 20.016L8.28423 19.7951L8.04885 21.9136L10.178 22.0138L10.272 20.016ZM12.656 20.432L12.0058 22.3234L12.0058 22.3234L12.656 20.432ZM14.336 21.184L13.2948 22.8916L13.3101 22.9009L13.3256 22.91L14.336 21.184ZM15.248 21.728L16.3774 20.0774L16.3432 20.054L16.308 20.032L15.248 21.728ZM16.096 22.544L14.381 23.573L14.3904 23.5886L14.4 23.604L16.096 22.544ZM15.712 25.056L17.1077 26.4885L17.1077 26.4885L15.712 25.056ZM12.448 24.112L10.6031 24.8843L10.6078 24.8955L10.6127 24.9067L12.448 24.112ZM11.344 22.848L10.1754 24.4711L10.183 24.4765L10.1906 24.4819L11.344 22.848ZM6.512 22.896L5.49452 21.1741L5.48301 21.181L6.512 22.896ZM6.832 26.24L5.94602 28.0331L5.95454 28.0373L5.9631 28.0414L6.832 26.24ZM11.072 27.92L10.402 29.8044L10.4064 29.806L11.072 27.92ZM14.384 29.248L13.5393 31.0609L13.5472 31.0645L14.384 29.248ZM16.592 30.88L15.0328 32.1325L15.0378 32.1388L15.0429 32.1451L16.592 30.88ZM16.352 36.88L14.7682 35.6587L14.7635 35.6648L14.7589 35.6708L16.352 36.88ZM13.76 38.944L14.5946 40.7616L14.6028 40.7578L13.76 38.944ZM10.496 39.92L10.1975 37.9424L8.43579 38.2083L8.49719 39.9889L10.496 39.92ZM10.608 40.736L8.67847 41.2622L8.68947 41.3026L8.70215 41.3424L10.608 40.736ZM10.192 41.792L9.83423 39.8243L9.78381 39.8334L9.73392 39.8452L10.192 41.792ZM9.456 41.936L9.79581 43.9069H9.79581L9.456 41.936ZM8.56 42.08L8.8531 44.0584H8.8531L8.56 42.08ZM7.632 42.016L6.30327 43.5108L6.34207 43.5453L6.38261 43.5777L7.632 42.016ZM7.536 40.96L5.56321 40.6312L5.55651 40.6714L5.55144 40.7119L7.536 40.96ZM7.648 40.064L9.63927 40.2507L9.83718 38.1396L7.71813 38.0652L7.648 40.064ZM3.168 39.104L2.2604 40.8862L2.27025 40.8912L2.28016 40.8961L3.168 39.104ZM0.896 37.264L2.63604 36.278L2.60605 36.225L2.57289 36.174L0.896 37.264ZM0.56 36.368L-1.39237 36.8019L0.56 36.368ZM3.072 33.744L1.45212 34.917L1.46194 34.9306L1.472 34.944L3.072 33.744ZM1.68564 35.2432C2.0902 36.7358 2.88805 38.0501 4.24185 38.8551L6.28615 35.4169C6.06129 35.2832 5.76047 34.9868 5.54636 34.1968L1.68564 35.2432ZM4.26923 38.8711C5.42805 39.5354 6.74046 39.824 8.128 39.824V35.824C7.29688 35.824 6.69995 35.6539 6.25877 35.4009L4.26923 38.8711ZM8.128 39.824C9.4228 39.824 10.6898 39.5481 11.7465 38.8012L9.43753 35.5348C9.25683 35.6626 8.88121 35.824 8.128 35.824V39.824ZM11.7519 38.7973C12.8281 38.0312 13.536 36.8942 13.536 35.472H9.536C9.536 35.4878 9.53435 35.4863 9.53769 35.473C9.54118 35.4592 9.54688 35.4454 9.55246 35.4353C9.56514 35.4125 9.55096 35.4541 9.43214 35.5387L11.7519 38.7973ZM13.536 35.472C13.536 34.3426 13.0859 33.3086 12.1806 32.5659L9.64337 35.6581C9.64218 35.6572 9.62947 35.6464 9.612 35.6242C9.59418 35.6015 9.5766 35.5734 9.56221 35.542C9.53109 35.4742 9.536 35.4388 9.536 35.472H13.536ZM12.1806 32.5659C11.5231 32.0263 10.6747 31.6085 9.76091 31.2643L8.35109 35.0077C9.07995 35.2822 9.46892 35.515 9.64337 35.6581L12.1806 32.5659ZM9.78206 31.2724C8.97718 30.9589 7.9715 30.5535 6.76232 30.055L5.23768 33.753C6.4605 34.2572 7.49216 34.6731 8.32994 34.9996L9.78206 31.2724ZM6.71796 30.0373C5.65477 29.6284 4.75413 29.2339 4.00768 28.8558L2.20032 32.4242C3.09653 32.8781 4.12657 33.3263 5.28204 33.7707L6.71796 30.0373ZM4.00768 28.8558C3.40986 28.553 3.03144 28.2217 2.79062 27.8969L-0.422624 30.2791C0.253892 31.1916 1.15547 31.895 2.20032 32.4242L4.00768 28.8558ZM2.80029 27.91C2.66149 27.7196 2.496 27.3412 2.496 26.592H-1.504C-1.504 27.9122 -1.21082 29.1977 -0.432287 30.266L2.80029 27.91ZM2.496 26.592C2.496 25.6073 2.73302 24.9312 3.0903 24.4392L-0.146304 22.0888C-1.09035 23.3888 -1.504 24.9314 -1.504 26.592H2.496ZM3.08115 24.4517C3.52993 23.8437 4.13521 23.3439 4.9476 22.9616L3.2444 19.3424C1.88079 19.9841 0.736736 20.8923 -0.137148 22.0763L3.08115 24.4517ZM4.94081 22.9648C5.83033 22.5503 6.83427 22.2667 7.96818 22.1295L7.48782 18.1585C5.9764 18.3413 4.559 18.7297 3.25119 19.3392L4.94081 22.9648ZM9.72689 20.0774C9.7117 19.6217 9.64982 19.1672 9.52593 18.7247L5.67407 19.8033C5.69951 19.8941 5.72296 20.0263 5.72911 20.2106L9.72689 20.0774ZM9.54478 18.7973C9.53187 18.7435 9.5216 18.6983 9.51361 18.6609C9.50553 18.6232 9.50048 18.5969 9.49757 18.5804C9.49446 18.5628 9.49508 18.5637 9.49682 18.5788C9.49776 18.5869 9.4994 18.6024 9.50087 18.624C9.5023 18.6449 9.504 18.6779 9.504 18.72H5.504C5.504 19.0892 5.59875 19.4954 5.65523 19.7307L9.54478 18.7973ZM9.504 18.72C9.504 18.9662 9.42214 19.3553 9.11031 19.6954C8.82765 20.0038 8.52693 20.0835 8.44701 20.1005L7.61699 16.1875C7.18507 16.2792 6.62035 16.4922 6.16169 16.9925C5.67386 17.5247 5.504 18.1645 5.504 18.72H9.504ZM8.39618 20.1106C8.65398 20.0628 8.98712 20.0079 9.40068 19.9459L8.80732 15.9901C8.36755 16.0561 7.98602 16.1185 7.66782 16.1774L8.39618 20.1106ZM9.44059 19.9395C9.64077 19.9053 9.79315 19.8827 9.90378 19.8691C10.0276 19.8539 10.052 19.856 10.016 19.856V15.856C9.65418 15.856 9.1946 15.9236 8.76741 15.9965L9.44059 19.9395ZM10.016 19.856C9.55415 19.856 9.23356 19.6633 9.08661 19.5457L11.5854 16.4223C11.2251 16.134 10.6912 15.856 10.016 15.856V19.856ZM9.08661 19.5457C8.74585 19.2731 8.60294 18.9514 8.54704 18.7725C8.51858 18.6815 8.50669 18.6101 8.50144 18.5681C8.49611 18.5254 8.496 18.4998 8.496 18.496H12.496C12.496 18.1251 12.4501 17.114 11.5854 16.4223L9.08661 19.5457ZM8.496 18.496C8.496 18.4753 8.49658 18.46 8.49704 18.451C8.4975 18.4419 8.49795 18.4369 8.49797 18.4366C8.498 18.4362 8.49774 18.4392 8.49694 18.4459C8.49614 18.4525 8.4949 18.4619 8.49308 18.4744C8.4853 18.5275 8.47039 18.6116 8.4444 18.7329L12.3556 19.5711C12.4226 19.2585 12.496 18.8621 12.496 18.496H8.496ZM8.43344 18.7878C8.3714 19.1228 8.32162 19.4586 8.28423 19.7951L12.2598 20.2369C12.2864 19.9974 12.3219 19.7572 12.3666 19.5162L8.43344 18.7878ZM10.178 22.0138C10.9415 22.0497 11.5417 22.1638 12.0058 22.3234L13.3062 18.5406C12.4049 18.2308 11.4158 18.0676 10.366 18.0182L10.178 22.0138ZM12.0058 22.3234C12.6027 22.5285 13.0195 22.7237 13.2948 22.8916L15.3772 19.4764C14.7779 19.111 14.0746 18.8048 13.3062 18.5406L12.0058 22.3234ZM13.3256 22.91C13.7638 23.1665 14.0448 23.3345 14.188 23.424L16.308 20.032C16.1098 19.9081 15.7829 19.7135 15.3464 19.458L13.3256 22.91ZM14.1186 23.3786C14.2516 23.4696 14.3327 23.5383 14.3772 23.5811C14.423 23.6251 14.4118 23.6243 14.381 23.573L17.811 21.515C17.4417 20.8995 16.8976 20.4333 16.3774 20.0774L14.1186 23.3786ZM14.4 23.604C14.3724 23.5598 14.3542 23.515 14.3441 23.4775C14.3345 23.4416 14.336 23.4261 14.336 23.44H18.336C18.336 22.7741 18.1757 22.098 17.792 21.484L14.4 23.604ZM14.336 23.44C14.336 23.5693 14.3163 23.6224 14.3143 23.6276C14.313 23.6308 14.3136 23.6286 14.3166 23.6241C14.3195 23.6197 14.3206 23.6194 14.3163 23.6235L17.1077 26.4885C17.9714 25.6469 18.336 24.5594 18.336 23.44H14.336ZM14.3163 23.6235C14.2904 23.6487 14.273 23.6616 14.265 23.667C14.2574 23.6722 14.2565 23.6718 14.2621 23.6695C14.2677 23.6671 14.2743 23.6651 14.2797 23.6641C14.2849 23.663 14.2831 23.664 14.272 23.664V27.664C15.3751 27.664 16.3461 27.2305 17.1077 26.4885L14.3163 23.6235ZM14.272 23.664C14.3095 23.664 14.3668 23.6712 14.4298 23.6949C14.4918 23.7182 14.5274 23.7454 14.5361 23.7528C14.542 23.7578 14.5159 23.737 14.4675 23.6659C14.4189 23.5944 14.3549 23.4826 14.2833 23.3173L10.6127 24.9067C11.206 26.277 12.3496 27.664 14.272 27.664V23.664ZM14.2929 23.3397C13.9145 22.4358 13.247 21.7432 12.4974 21.2141L10.1906 24.4819C10.529 24.7208 10.5975 24.8709 10.6031 24.8843L14.2929 23.3397ZM12.5126 21.2249C11.4807 20.4819 10.1696 20.272 8.912 20.272V24.272C9.83038 24.272 10.1407 24.4461 10.1754 24.4711L12.5126 21.2249ZM8.912 20.272C7.69337 20.272 6.53573 20.5589 5.49454 21.1741L7.52946 24.6179C7.89627 24.4011 8.33863 24.272 8.912 24.272V20.272ZM5.48301 21.181C4.31802 21.88 3.472 23.0187 3.472 24.544H7.472C7.472 24.5435 7.47202 24.5487 7.47067 24.5588C7.4693 24.5691 7.46675 24.5827 7.46223 24.5987C7.45256 24.6331 7.43801 24.6642 7.42337 24.6874C7.39374 24.7343 7.39844 24.6965 7.54099 24.611L5.48301 21.181ZM3.472 24.544C3.472 26.327 4.72653 27.4305 5.94602 28.0331L7.71798 24.4469C7.5798 24.3787 7.48851 24.3204 7.43196 24.2782C7.37574 24.2363 7.36311 24.2174 7.3723 24.2288C7.38336 24.2426 7.41226 24.2835 7.43682 24.3512C7.46192 24.4202 7.472 24.4885 7.472 24.544H3.472ZM5.9631 28.0414C6.97103 28.5276 8.46801 29.1168 10.402 29.8044L11.742 26.0356C9.83599 25.3579 8.50631 24.8271 7.7009 24.4386L5.9631 28.0414ZM10.4064 29.806C11.6318 30.2385 12.6734 30.6574 13.5394 31.0609L15.2286 27.4351C14.2172 26.9639 13.0509 26.4975 11.7376 26.034L10.4064 29.806ZM13.5472 31.0645C14.2846 31.4042 14.7467 31.7764 15.0328 32.1325L18.1512 29.6275C17.392 28.6823 16.3821 27.9665 15.2208 27.4315L13.5472 31.0645ZM15.0429 32.1451C15.1928 32.3285 15.376 32.6979 15.376 33.472H19.376C19.376 32.0701 19.0366 30.7115 18.1411 29.6149L15.0429 32.1451ZM15.376 33.472C15.376 34.5252 15.1215 35.2005 14.7682 35.6587L17.9358 38.1013C18.9478 36.7889 19.376 35.1921 19.376 33.472H15.376ZM14.7589 35.6708C14.2935 36.284 13.6922 36.7702 12.9172 37.1302L14.6028 40.7578C15.9398 40.1365 17.0665 39.2467 17.9451 38.0892L14.7589 35.6708ZM12.9254 37.1265C12.0494 37.5287 11.1417 37.7999 10.1975 37.9424L10.7945 41.8976C12.1116 41.6988 13.38 41.3193 14.5946 40.7615L12.9254 37.1265ZM8.49719 39.9889C8.51182 40.4132 8.5645 40.8443 8.67847 41.2622L12.5375 40.2098C12.5235 40.1583 12.5015 40.0455 12.4948 39.8511L8.49719 39.9889ZM8.70215 41.3424C8.71566 41.3849 8.72571 41.4184 8.73297 41.444C8.74038 41.4701 8.74364 41.4836 8.74432 41.4865C8.74534 41.4908 8.74098 41.4732 8.73576 41.4389C8.73303 41.421 8.72936 41.3938 8.72626 41.3593C8.72322 41.3254 8.72 41.2764 8.72 41.216H12.72C12.72 40.7713 12.5745 40.3203 12.5139 40.1296L8.70215 41.3424ZM8.72 41.216C8.72 40.9955 8.79044 40.6012 9.11369 40.2486C9.41326 39.9217 9.73864 39.8416 9.83423 39.8243L10.5498 43.7597C10.9974 43.6784 11.5867 43.4703 12.0623 42.9515C12.5616 42.4068 12.72 41.7565 12.72 41.216H8.72ZM9.73392 39.8452C9.60921 39.8745 9.4087 39.9146 9.11619 39.9651L9.79581 43.9069C10.122 43.8507 10.4121 43.7948 10.6501 43.7388L9.73392 39.8452ZM9.11619 39.9651C8.8212 40.0159 8.53815 40.0614 8.2669 40.1016L8.8531 44.0584C9.15785 44.0133 9.47213 43.9627 9.79581 43.9069L9.11619 39.9651ZM8.2669 40.1016C8.13811 40.1207 8.04465 40.1327 7.98104 40.1396C7.94966 40.143 7.93182 40.1444 7.92499 40.1449C7.91568 40.1456 7.93291 40.144 7.968 40.144V44.144C8.2429 44.144 8.57931 44.099 8.8531 44.0584L8.2669 40.1016ZM7.968 40.144C8.37714 40.144 8.69437 40.3046 8.88139 40.4543L6.38261 43.5777C6.78297 43.898 7.32419 44.144 7.968 44.144V40.144ZM8.96073 40.5212C9.28802 40.8121 9.4077 41.1346 9.4493 41.2825C9.49147 41.4324 9.488 41.5225 9.488 41.504H5.488C5.488 41.8294 5.51144 42.807 6.30327 43.5108L8.96073 40.5212ZM9.488 41.504C9.488 41.5246 9.48731 41.5319 9.48792 41.5209C9.48846 41.5113 9.4897 41.4928 9.49226 41.4638C9.49746 41.4049 9.50643 41.321 9.52056 41.2081L5.55144 40.7119C5.51949 40.9675 5.488 41.2597 5.488 41.504H9.488ZM9.50879 41.2888C9.56134 40.9735 9.60413 40.6255 9.63927 40.2507L5.65673 39.8773C5.62787 40.1852 5.596 40.4345 5.56321 40.6312L9.50879 41.2888ZM7.71813 38.0652C6.07061 38.0074 4.88222 37.7213 4.05584 37.3119L2.28016 40.8961C3.77912 41.6387 5.57739 41.9926 7.57787 42.0628L7.71813 38.0652ZM4.0756 37.3218C3.04088 36.7949 2.7078 36.4046 2.63604 36.278L-0.844044 38.25C-0.190463 39.4034 0.991116 40.2398 2.2604 40.8862L4.0756 37.3218ZM2.57289 36.174C2.59965 36.2152 2.5979 36.2237 2.58066 36.1778C2.56399 36.1333 2.53924 36.055 2.51237 35.9341L-1.39237 36.8019C-1.28039 37.3058 -1.10095 37.8616 -0.780887 38.354L2.57289 36.174ZM2.51237 35.9341C2.44669 35.6386 2.432 35.4609 2.432 35.376H-1.568C-1.568 35.8458 -1.49736 36.3294 -1.39237 36.8019L2.51237 35.9341ZM2.432 35.376C2.432 35.1499 2.45469 35.0199 2.46986 34.9614C2.48423 34.9061 2.4825 34.95 2.41806 35.0327C2.3857 35.0743 2.34304 35.1183 2.29027 35.159C2.23753 35.1996 2.18452 35.2293 2.13711 35.2496C2.04297 35.2899 2.00312 35.28 2.064 35.28V31.28C1.0595 31.28 -0.00045135 31.628 -0.738056 32.5753C-1.40161 33.4275 -1.568 34.4729 -1.568 35.376H2.432ZM2.064 35.28C2.05912 35.28 1.95938 35.2789 1.81571 35.2128C1.66113 35.1416 1.53484 35.0312 1.45212 34.917L4.69188 32.571C4.02326 31.6476 3.02688 31.28 2.064 31.28V35.28ZM1.472 34.944C1.5871 35.0975 1.68127 35.2654 1.75518 35.453L5.47682 33.9869C5.2734 33.4706 5.0049 32.9879 4.672 32.544L1.472 34.944Z" fill="#FFC0CF" mask="url(#path-1-inside-1_304_213)"/>
</svg>
